<svg width="30" height="30" viewBox="0 0 30 30" fill="none" xmlns="http://www.w3.org/2000/svg">
<path d="M15.0006 20C14.7085 20.0006 14.4255 19.8989 14.2006 19.7125L6.70059 13.4625C6.44532 13.2503 6.28479 12.9454 6.25431 12.6149C6.22384 12.2844 6.32592 11.9553 6.53809 11.7C6.75026 11.4447 7.05515 11.2842 7.38568 11.2537C7.71622 11.2233 8.04532 11.3253 8.30059 11.5375L15.0006 17.1375L21.7006 11.7375C21.8284 11.6337 21.9756 11.5561 22.1335 11.5093C22.2914 11.4626 22.457 11.4474 22.6208 11.4649C22.7846 11.4823 22.9433 11.5319 23.0879 11.6109C23.2324 11.6898 23.3599 11.7966 23.4631 11.925C23.5776 12.0535 23.6643 12.2043 23.7178 12.3679C23.7712 12.5315 23.7904 12.7044 23.7739 12.8757C23.7575 13.047 23.7059 13.2131 23.6223 13.3636C23.5387 13.514 23.4249 13.6456 23.2881 13.75L15.7881 19.7875C15.5567 19.9444 15.2795 20.0192 15.0006 20Z" fill="#231F20"/>
</svg>
