<svg width="38" height="40" viewBox="0 0 38 40" fill="none" xmlns="http://www.w3.org/2000/svg">
<path d="M32.7619 32.15L27.3834 26.5C29.1187 24.1708 30.0603 21.2944 30.0568 18.3334C30.0568 15.6963 29.3146 13.1184 27.924 10.9258C26.5334 8.7331 24.5569 7.02413 22.2445 6.01496C19.932 5.00579 17.3874 4.74175 14.9325 5.25622C12.4776 5.77069 10.2227 7.04056 8.45277 8.90526C6.68289 10.77 5.47758 13.1457 4.98927 15.7322C4.50096 18.3186 4.75158 20.9995 5.70943 23.4358C6.66729 25.8721 8.28936 27.9545 10.3705 29.4196C12.4517 30.8847 14.8985 31.6667 17.4015 31.6667C20.212 31.6704 22.9421 30.6783 25.1529 28.85L30.5156 34.5167C30.6627 34.6729 30.8376 34.7969 31.0304 34.8815C31.2232 34.9661 31.4299 35.0097 31.6388 35.0097C31.8476 35.0097 32.0544 34.9661 32.2471 34.8815C32.4399 34.7969 32.6149 34.6729 32.7619 34.5167C32.9102 34.3617 33.0279 34.1774 33.1082 33.9743C33.1885 33.7712 33.2298 33.5534 33.2298 33.3334C33.2298 33.1133 33.1885 32.8955 33.1082 32.6924C33.0279 32.4893 32.9102 32.305 32.7619 32.15ZM7.90994 18.3334C7.90994 16.3555 8.46661 14.4221 9.50955 12.7777C10.5525 11.1332 12.0349 9.85143 13.7692 9.09456C15.5036 8.33768 17.412 8.13965 19.2532 8.5255C21.0943 8.91135 22.7856 9.86376 24.113 11.2623C25.4404 12.6608 26.3444 14.4426 26.7106 16.3825C27.0768 18.3223 26.8889 20.3329 26.1705 22.1602C25.4521 23.9874 24.2355 25.5492 22.6747 26.648C21.1138 27.7469 19.2787 28.3334 17.4015 28.3334C14.8842 28.3334 12.47 27.2798 10.6899 25.4044C8.90994 23.5291 7.90994 20.9855 7.90994 18.3334Z" fill="#493D0E"/>
</svg>
